<?xml version="1.0"?>
<svg xmlns="http://www.w3.org/2000/svg" height="512px" viewBox="0 0 368 368" width="512px"><g><path d="m328 0h-288c-22.054688 0-40 17.945312-40 40v288c0 22.054688 17.945312 40 40 40h288c22.054688 0 40-17.945312 40-40v-288c0-22.054688-17.945312-40-40-40zm24 328c0 13.230469-10.769531 24-24 24h-288c-13.230469 0-24-10.769531-24-24v-288c0-13.230469 10.769531-24 24-24h288c13.230469 0 24 10.769531 24 24zm0 0" data-original="#000000" class="active-path" data-old_color="#cccccc" fill="#cccccc"/><path d="m300.015625 129.078125c-2.480469-1.4375-5.511719-1.445313-7.984375-.023437l-108.03125 61.738281-108.03125-61.738281c-2.472656-1.414063-5.503906-1.40625-7.984375.023437-2.464844 1.433594-3.984375 4.074219-3.984375 6.921875v160c0 4.425781 3.585938 8 8 8s8-3.574219 8-8v-146.207031l100.03125 57.160156c2.464844 1.40625 5.480469 1.40625 7.9375 0l100.03125-57.160156v146.207031c0 4.425781 3.585938 8 8 8s8-3.574219 8-8v-160c0-2.847656-1.519531-5.488281-3.984375-6.921875zm0 0" data-original="#000000" class="active-path" data-old_color="#cccccc" fill="#cccccc"/><path d="m68.03125 78.945312 112 64c1.234375.703126 2.601562 1.054688 3.96875 1.054688s2.734375-.351562 3.96875-1.054688l112-64c3.832031-2.191406 5.167969-7.082031 2.976562-10.914062-2.183593-3.832031-7.074218-5.167969-10.914062-2.976562l-108.03125 61.738281-108.03125-61.738281c-3.832031-2.191407-8.710938-.855469-10.914062 2.976562-2.191407 3.832031-.863282 8.722656 2.976562 10.914062zm0 0" data-original="#000000" class="active-path" data-old_color="#cccccc" fill="#cccccc"/></g> </svg>
